<svg width="47" height="36" viewBox="0 0 47 36" fill="none" xmlns="http://www.w3.org/2000/svg">
<path fill-rule="evenodd" clip-rule="evenodd" d="M13.2768 32.0955V33.9999V35.9042H12.4383V35.4418C12.1723 35.7847 11.7688 36 11.2202 36C10.1388 36 9.2911 35.1636 9.2911 33.9999C9.2911 32.837 10.1388 31.9997 11.2202 31.9997C11.7688 31.9997 12.1723 32.215 12.4383 32.5579V32.0955H13.2768ZM11.3246 32.7804C10.5987 32.7804 10.1545 33.3304 10.1545 33.9998C10.1545 34.6693 10.5987 35.2193 11.3246 35.2193C12.0181 35.2193 12.4863 34.693 12.4863 33.9998C12.4863 33.3067 12.0181 32.7804 11.3246 32.7804ZM41.6126 33.9998C41.6126 33.3304 42.0567 32.7804 42.7826 32.7804C43.477 32.7804 43.9443 33.3067 43.9443 33.9998C43.9443 34.693 43.477 35.2193 42.7826 35.2193C42.0567 35.2193 41.6126 34.6693 41.6126 33.9998ZM44.7357 30.566V33.9999V35.9042H43.8963V35.4418C43.6303 35.7847 43.2268 36 42.6782 36C41.5969 36 40.7491 35.1636 40.7491 33.9999C40.7491 32.837 41.5969 31.9997 42.6782 31.9997C43.2268 31.9997 43.6303 32.215 43.8963 32.5579V30.566H44.7357ZM23.6852 32.7412C24.2255 32.7412 24.5727 33.0759 24.6613 33.6651H22.6602C22.7498 33.1152 23.0877 32.7412 23.6852 32.7412ZM21.781 33.9999C21.781 32.8124 22.5715 31.9997 23.7018 31.9997C24.7823 31.9997 25.5248 32.8124 25.5331 33.9999C25.5331 34.1111 25.5248 34.2151 25.5165 34.3182H22.6528C22.7737 35.004 23.266 35.2512 23.8062 35.2512C24.1931 35.2512 24.605 35.1071 24.9282 34.8526L25.3391 35.4664C24.8709 35.8568 24.339 36 23.7582 36C22.6038 36 21.781 35.2111 21.781 33.9999ZM33.8268 33.9998C33.8268 33.3304 34.271 32.7804 34.9968 32.7804C35.6903 32.7804 36.1585 33.3067 36.1585 33.9998C36.1585 34.693 35.6903 35.2193 34.9968 35.2193C34.271 35.2193 33.8268 34.6693 33.8268 33.9998ZM36.9491 32.0955V33.9999V35.9042H36.1105V35.4418C35.8437 35.7847 35.441 36 34.8925 36C33.8111 36 32.9633 35.1636 32.9633 33.9999C32.9633 32.837 33.8111 31.9997 34.8925 31.9997C35.441 31.9997 35.8437 32.215 36.1105 32.5579V32.0955H36.9491ZM29.0912 33.9999C29.0912 35.1554 29.9057 36 31.1487 36C31.7295 36 32.1165 35.8723 32.5357 35.5458L32.1331 34.8763C31.8182 35.0998 31.4876 35.2193 31.1237 35.2193C30.4542 35.2111 29.962 34.7332 29.962 33.9999C29.962 33.2666 30.4542 32.7887 31.1237 32.7804C31.4876 32.7804 31.8182 32.8999 32.1331 33.1234L32.5357 32.4539C32.1165 32.1274 31.7295 31.9997 31.1487 31.9997C29.9057 31.9997 29.0912 32.8443 29.0912 33.9999ZM38.8854 32.5579C39.1033 32.2232 39.4183 31.9997 39.9022 31.9997C40.0721 31.9997 40.314 32.0317 40.4996 32.1037L40.2411 32.8844C40.0638 32.8124 39.8865 32.7887 39.7165 32.7887C39.168 32.7887 38.8937 33.1389 38.8937 33.7691V35.9042H38.0543V32.0955H38.8854V32.5579ZM17.424 32.3983C17.0205 32.1356 16.4645 31.9997 15.8514 31.9997C14.8743 31.9997 14.2454 32.4621 14.2454 33.2191C14.2454 33.8402 14.7136 34.2233 15.5762 34.3428L15.9723 34.3984C16.4322 34.4623 16.6492 34.5817 16.6492 34.797C16.6492 35.0916 16.3426 35.2594 15.7701 35.2594C15.1892 35.2594 14.77 35.0761 14.4874 34.8608L14.0922 35.5057C14.552 35.8404 15.1329 36 15.7618 36C16.8755 36 17.521 35.4819 17.521 34.7569C17.521 34.0874 17.0131 33.7372 16.1737 33.6177L15.7784 33.5612C15.4155 33.5137 15.1246 33.4426 15.1246 33.1872C15.1246 32.9081 15.3989 32.7412 15.8587 32.7412C16.351 32.7412 16.8275 32.9245 17.0611 33.0677L17.424 32.3983ZM27.2277 32.5579C27.4447 32.2232 27.7596 31.9997 28.2435 31.9997C28.4134 31.9997 28.6553 32.0317 28.841 32.1037L28.5824 32.8844C28.4051 32.8124 28.2278 32.7887 28.0579 32.7887C27.5093 32.7887 27.235 33.1389 27.235 33.7691V35.9042H26.3965V32.0955H27.2277V32.5579ZM21.0873 32.0955H19.716V30.9399H18.8683V32.0955H18.0861V32.8525H18.8683V34.59C18.8683 35.4737 19.2155 36 20.2073 36C20.5711 36 20.9904 35.8887 21.2563 35.7054L21.0144 34.9958C20.7641 35.139 20.4899 35.2111 20.2719 35.2111C19.8527 35.2111 19.716 34.9557 19.716 34.5735V32.8525H21.0873V32.0955ZM8.54949 33.5137V35.9042H7.70175V33.7846C7.70175 33.1389 7.42748 32.7804 6.85493 32.7804C6.29807 32.7804 5.91114 33.1316 5.91114 33.7928V35.9042H5.0634V33.7846C5.0634 33.1389 4.78174 32.7804 4.22488 32.7804C3.65141 32.7804 3.28018 33.1316 3.28018 33.7928V35.9042H2.43335L2.43335 32.0955H3.27279V32.5652C3.58769 32.1192 3.99032 31.9997 4.40219 31.9997C4.99136 31.9997 5.41062 32.2551 5.67658 32.6774C6.03211 32.1429 6.54002 31.9915 7.03223 31.9997C7.96863 32.0079 8.54949 32.6135 8.54949 33.5137Z" fill="white"/>
<path d="M29.8548 25.6237H17.146V3.06677H29.8548V25.6237Z" fill="#FF5F00"/>
<path d="M17.9523 14.3457C17.9523 9.7699 20.1215 5.69393 23.4995 3.06722C21.0293 1.14644 17.9116 -1.33514e-05 14.5234 -1.33514e-05C6.50215 -1.33514e-05 0 6.42266 0 14.3457C0 22.2687 6.50215 28.6913 14.5234 28.6913C17.9116 28.6913 21.0293 27.5449 23.4995 25.6241C20.1215 22.9974 17.9523 18.9214 17.9523 14.3457Z" fill="#EB001B"/>
<path d="M47 14.3457C47 22.2687 40.4978 28.6913 32.4766 28.6913C29.0884 28.6913 25.9707 27.5449 23.4995 25.6241C26.8785 22.9974 29.0477 18.9214 29.0477 14.3457C29.0477 9.7699 26.8785 5.69393 23.4995 3.06722C25.9707 1.14644 29.0884 -1.33514e-05 32.4766 -1.33514e-05C40.4978 -1.33514e-05 47 6.42266 47 14.3457Z" fill="#F79E1B"/>
</svg>
