<svg width="20" height="20" viewBox="0 0 20 20" fill="none" xmlns="http://www.w3.org/2000/svg">
<path d="M4.16659 12.5C2.32492 12.5 0.833252 13.9917 0.833252 15.8333C0.833252 16.4583 1.00825 17.05 1.31659 17.55C1.89159 18.5167 2.94992 19.1667 4.16659 19.1667C5.38325 19.1667 6.44159 18.5167 7.01659 17.55C7.32492 17.05 7.49992 16.4583 7.49992 15.8333C7.49992 13.9917 6.00825 12.5 4.16659 12.5ZM5.40825 16.4417H4.79159V17.0917C4.79159 17.4333 4.50825 17.7167 4.16659 17.7167C3.82492 17.7167 3.54159 17.4333 3.54159 17.0917V16.4417H2.92492C2.58325 16.4417 2.29992 16.1583 2.29992 15.8167C2.29992 15.475 2.58325 15.1917 2.92492 15.1917H3.54159V14.6C3.54159 14.2583 3.82492 13.975 4.16659 13.975C4.50825 13.975 4.79159 14.2583 4.79159 14.6V15.1917H5.40825C5.74992 15.1917 6.03325 15.475 6.03325 15.8167C6.03325 16.1583 5.75825 16.4417 5.40825 16.4417ZM17.9166 10.4167H15.8333C14.9166 10.4167 14.1666 11.1667 14.1666 12.0833C14.1666 13 14.9166 13.75 15.8333 13.75H17.9166C18.1499 13.75 18.3333 13.5667 18.3333 13.3333V10.8333C18.3333 10.6 18.1499 10.4167 17.9166 10.4167ZM13.7743 4.50014C14.0243 4.74181 13.8159 5.11681 13.4659 5.11681L6.56594 5.10847C6.16594 5.10847 5.96594 4.62514 6.24928 4.34181L7.70761 2.87514C8.94092 1.65014 10.9326 1.65014 12.1659 2.87514L13.7409 4.46681C13.7493 4.47514 13.7659 4.49181 13.7743 4.50014Z" fill="#363A3F"/>
<path d="M18.2245 15.55C17.7162 17.2667 16.2495 18.3333 14.2495 18.3333H8.83283C8.50783 18.3333 8.29948 17.975 8.43283 17.675C8.68283 17.0917 8.84116 16.4333 8.84116 15.8333C8.84116 13.3083 6.78281 11.25 4.25781 11.25C3.62448 11.25 3.00781 11.3833 2.44115 11.6333C2.13281 11.7667 1.75781 11.5583 1.75781 11.225V10C1.75781 7.73333 3.12448 6.14999 5.24948 5.88333C5.45781 5.84999 5.6828 5.83333 5.91614 5.83333H14.2495C14.4662 5.83333 14.6745 5.84166 14.8745 5.875C16.5578 6.06666 17.7745 7.09166 18.2245 8.61666C18.3078 8.89166 18.1078 9.16666 17.8245 9.16666H15.9162C14.1078 9.16666 12.6745 10.8167 13.0662 12.6917C13.3412 14.0583 14.6078 15 15.9995 15H17.8245C18.1162 15 18.3078 15.2833 18.2245 15.55Z" fill="#363A3F"/>
</svg>
