<svg width="20" height="20" viewBox="0 0 20 20" fill="none" xmlns="http://www.w3.org/2000/svg">
<path d="M18.3335 9.141V10.8577C18.3335 11.316 17.9668 11.691 17.5001 11.7077H15.8668C14.9668 11.7077 14.1418 11.0493 14.0668 10.1493C14.0168 9.62433 14.2168 9.13267 14.5668 8.791C14.8751 8.47433 15.3001 8.29102 15.7668 8.29102H17.5001C17.9668 8.30768 18.3335 8.68267 18.3335 9.141Z" fill="#C8EE44"/>
<path d="M17.0583 12.9583H15.8666C14.2833 12.9583 12.95 11.7667 12.8166 10.25C12.7416 9.38334 13.0583 8.51667 13.6916 7.90001C14.225 7.35001 14.9666 7.04167 15.7666 7.04167H17.0583C17.3 7.04167 17.5 6.84167 17.475 6.60001C17.2916 4.57501 15.95 3.19167 13.9583 2.95834C13.7583 2.92501 13.55 2.91667 13.3333 2.91667H5.83329C5.59996 2.91667 5.37496 2.93334 5.15829 2.96667C3.03329 3.23334 1.66663 4.81667 1.66663 7.08334V12.9167C1.66663 15.2167 3.53329 17.0833 5.83329 17.0833H13.3333C15.6666 17.0833 17.275 15.625 17.475 13.4C17.5 13.1583 17.3 12.9583 17.0583 12.9583ZM10.8333 8.12501H5.83329C5.49163 8.12501 5.20829 7.84167 5.20829 7.50001C5.20829 7.15834 5.49163 6.87501 5.83329 6.87501H10.8333C11.175 6.87501 11.4583 7.15834 11.4583 7.50001C11.4583 7.84167 11.175 8.12501 10.8333 8.12501Z" fill="#C8EE44"/>
</svg>
