<svg width="108" height="30" viewBox="0 0 108 30" fill="none" xmlns="http://www.w3.org/2000/svg">
<path d="M22 0C26.4183 0 30 3.58172 30 8V22C30 26.4183 26.4183 30 22 30H8C3.58172 30 2.25497e-07 26.4183 0 22V8C0 3.58172 3.58172 2.2549e-07 8 0H22ZM13.4658 3C12.3174 3 11.0031 3.44721 9.52344 4.34082L10.5508 6.28711C9.55705 12.1804 8.88364 16.3719 8.53027 18.8613C8.17693 21.3507 8 23.2023 8 24.415C8.00002 25.3299 8.18807 25.9893 8.56348 26.3936C8.93885 26.7977 9.53474 26.9999 10.3516 27C11.1686 27 12.019 26.7231 12.9023 26.1699C12.6375 25.8508 12.4391 25.4572 12.3066 24.9893C12.1741 24.5212 12.1074 23.9783 12.1074 23.3613C12.1075 22.5953 12.251 21.2654 12.5381 19.3721C12.6548 18.6574 12.7961 17.8004 12.96 16.8008C14.2275 17.0878 15.3231 17.2343 16.248 17.2344C17.2196 17.2344 17.9598 17.0321 18.4678 16.6279C18.9977 16.2025 19.2626 15.6066 19.2627 14.8408V14.4893C19.2407 14.4255 19.2295 14.3616 19.2295 14.2979V14.0742L16.7783 14.6494C15.487 14.6494 14.3406 14.5936 13.3389 14.4873C13.5256 13.3501 13.7337 12.0847 13.9629 10.6914C14.1851 9.36807 14.388 8.16029 14.5732 7.06836C15.0401 7.17594 15.51 7.26753 15.9834 7.34082C17.2422 7.51103 18.5454 7.5957 19.8926 7.5957C21.0629 7.59567 22.0347 7.35066 22.8076 6.86133C23.6024 6.35074 23.9999 5.5745 24 4.53223C24 4.00031 23.9444 3.55311 23.834 3.19141C23.7016 3.21268 23.5689 3.24459 23.4365 3.28711C23.3262 3.30837 23.2047 3.32933 23.0723 3.35059C20.9083 3.77607 19.175 4.0749 17.8721 4.24512C17.0082 4.35797 16.0225 4.43169 14.916 4.46973C14.8545 3.48994 14.3716 3 13.4658 3Z" fill="#1B212D"/>
<path d="M100.301 7.52148V13.4307C101.033 12.6143 102.047 12.209 103.33 12.209C104.607 12.209 105.62 12.6025 106.352 13.4014C107.082 14.1926 107.439 15.2879 107.439 16.6699V22.4199H104.787V17.2852C104.787 16.4178 104.586 15.7631 104.201 15.3047H104.2C103.818 14.8432 103.28 14.6074 102.568 14.6074C101.851 14.6074 101.302 14.8464 100.906 15.3154H100.905C100.507 15.7809 100.301 16.4324 100.301 17.2852V22.4199H97.6484V7.52148H100.301Z" fill="#1B212D" stroke="#1B212D" stroke-width="0.25"/>
<path d="M91.9336 12.209C92.7436 12.209 93.493 12.3588 94.1807 12.6592L94.4355 12.7773C95.0198 13.0669 95.5263 13.4513 95.9531 13.9307L96.0293 14.0156L95.9502 14.0996L94.5439 15.5938L94.4521 15.6914L94.3613 15.5928C94.116 15.3256 93.8248 15.1102 93.4873 14.9473L93.3398 14.8809C92.9458 14.712 92.526 14.627 92.0801 14.627C91.5394 14.627 91.0626 14.7451 90.6475 14.9805C90.2379 15.2163 89.9151 15.5418 89.6787 15.958L89.6797 15.959C89.4504 16.3742 89.334 16.8542 89.334 17.4023C89.334 17.9497 89.4497 18.4328 89.6787 18.8545L89.7715 19.0068C89.9971 19.3521 90.2889 19.6305 90.6475 19.8428L90.8066 19.9258C91.1833 20.1062 91.6071 20.1973 92.0801 20.1973C92.5259 20.1973 92.9487 20.1125 93.3496 19.9434C93.7509 19.7676 94.0878 19.5308 94.3613 19.2324L94.4512 19.1338L94.543 19.2295L95.9688 20.7041L96.0488 20.7871L95.9727 20.874C95.4852 21.4282 94.8941 21.8585 94.2012 22.165H94.2002C93.5061 22.4654 92.75 22.6152 91.9336 22.6152C90.9247 22.6152 90.0143 22.3897 89.2061 21.9355V21.9346C88.4063 21.4814 87.7716 20.8644 87.3047 20.084L87.3037 20.083V20.082C86.8426 19.2931 86.6133 18.402 86.6133 17.4121C86.6133 16.422 86.843 15.5338 87.3047 14.751C87.7716 13.9639 88.406 13.343 89.2061 12.8896V12.8887C90.0143 12.4345 90.9247 12.209 91.9336 12.209Z" fill="#1B212D" stroke="#1B212D" stroke-width="0.25"/>
<path d="M80.4102 12.209C81.4325 12.209 82.3342 12.4519 83.1113 12.9404H83.1123C83.8947 13.4219 84.5025 14.0939 84.9355 14.9531C85.3691 15.8069 85.584 16.7971 85.584 17.9199V18.3574H78.1064C78.223 18.7174 78.4037 19.0382 78.6484 19.3213L78.7588 19.4395C79.0245 19.7073 79.3434 19.9208 79.7168 20.0801C80.1419 20.2614 80.6231 20.3535 81.1621 20.3535C82.1743 20.3535 83.1113 20.0249 83.9766 19.3633L84.0986 19.2705L84.165 19.4082L84.9854 21.1074L85.0312 21.2021L84.9463 21.2637C83.7085 22.1637 82.3516 22.6152 80.8789 22.6152C79.8121 22.6152 78.8506 22.3827 77.9971 21.916C77.2518 21.5084 76.6402 20.9703 76.1641 20.3018L75.9678 20.0068C75.4731 19.1979 75.2266 18.2829 75.2266 17.2656C75.2266 16.3016 75.4499 15.4361 75.8984 14.6729V14.6719C76.3524 13.911 76.9708 13.3103 77.751 12.8701L77.752 12.8691C78.5404 12.4282 79.4275 12.209 80.4102 12.209ZM80.5371 14.5098C80.0672 14.5098 79.6518 14.6103 79.2881 14.8076C78.9226 15.0059 78.6251 15.281 78.3955 15.6348V15.6357C78.1901 15.9467 78.0541 16.3012 77.9873 16.7012H83.0898C83.028 16.2891 82.891 15.9285 82.6797 15.6172L82.6787 15.6162C82.4497 15.2696 82.1501 15.0007 81.7783 14.8086L81.7764 14.8076C81.4124 14.6102 81.0002 14.5098 80.5371 14.5098Z" fill="#1B212D" stroke="#1B212D" stroke-width="0.25"/>
<path d="M71.209 9.96289V12.4043H73.9922V14.8027H71.209V18.5547C71.209 19.0842 71.3515 19.4863 71.623 19.7764C71.9047 20.07 72.2529 20.2168 72.6758 20.2168C73.0525 20.2168 73.4301 20.1013 73.8105 19.8643L73.9707 19.7646L74 19.9512L74.332 22.0215L74.3477 22.1182L74.2568 22.1562C73.5279 22.461 72.8183 22.6152 72.1289 22.6152C71.427 22.6152 70.8028 22.4651 70.2607 22.1602V22.1592C69.7265 21.8549 69.3059 21.432 69.002 20.8916V20.8896C68.7041 20.3412 68.5566 19.7082 68.5566 18.9941V14.8027H66.8477V12.4043H68.6836V9.96289H71.209Z" fill="#1B212D" stroke="#1B212D" stroke-width="0.25"/>
<path d="M61.582 12.209C62.8397 12.209 63.8453 12.5927 64.583 13.3711C65.32 14.1487 65.6816 15.2079 65.6816 16.5332V22.4199H63.0293V17.0312C63.0293 16.2643 62.8361 15.6788 62.4648 15.2588L62.4639 15.2578C62.1011 14.8408 61.5949 14.627 60.9277 14.627C60.4597 14.627 60.0494 14.7363 59.6934 14.9512H59.6924C59.3367 15.1597 59.0564 15.4612 58.8516 15.8584C58.6474 16.2544 58.543 16.7189 58.543 17.2559V22.4199H55.8906V12.4043H58.1172L58.123 12.5234L58.1826 13.7275C58.5197 13.2843 58.9436 12.9342 59.4561 12.6807C60.0811 12.365 60.7909 12.209 61.582 12.209Z" fill="#1B212D" stroke="#1B212D" stroke-width="0.25"/>
<path d="M53.5039 12.4043V22.4199H50.8516V12.4043H53.5039ZM52.1777 7.38477C52.5547 7.38477 52.8764 7.51758 53.1348 7.78223C53.3926 8.04009 53.5234 8.35558 53.5234 8.7207C53.5234 9.09142 53.3938 9.4124 53.1367 9.67676L53.1357 9.67871C52.8769 9.93758 52.5544 10.0664 52.1777 10.0664C51.8068 10.0664 51.4879 9.93708 51.2295 9.67871L51.2275 9.67578C50.9772 9.41115 50.8516 9.09045 50.8516 8.7207C50.8516 8.35681 50.9777 8.04225 51.2285 7.78418C51.4866 7.51891 51.8057 7.38477 52.1777 7.38477Z" fill="#1B212D" stroke="#1B212D" stroke-width="0.25"/>
<path d="M49.168 7.52148V10.0371H42.7031V13.6445H48.7773V16.1504H42.7031V22.4199H39.875V7.52148H49.168Z" fill="#1B212D" stroke="#1B212D" stroke-width="0.25"/>
</svg>
